<?xml version="1.0" standalone="no"?>
<!DOCTYPE svg PUBLIC "-//W3C//DTD SVG 20010904//EN"
 "http://www.w3.org/TR/2001/REC-SVG-20010904/DTD/svg10.dtd">
<svg version="1.0" xmlns="http://www.w3.org/2000/svg"
 width="7016.000000pt" height="4961.000000pt" viewBox="0 0 7016.000000 4961.000000"
 preserveAspectRatio="xMidYMid meet">

<g transform="translate(0.000000,4961.000000) scale(0.100000,-0.100000)"
fill="#000000" stroke="none">
<path d="M40 24810 l0 -24760 35040 0 35040 0 0 24760 0 24760 -35040 0
-35040 0 0 -24760z m24780 12062 c14 -2 34 -12 45 -22 11 -9 322 -169 691
-356 l671 -338 194 -298 194 -297 655 -342 c360 -188 660 -346 666 -353 8 -8
15 -185 21 -596 6 -322 10 -586 9 -587 -1 -1 -291 -68 -645 -148 l-644 -145
-1376 0 -1376 -1 -16 -22 c-16 -22 3 -66 536 -1275 391 -885 563 -1265 588
-1295 19 -23 623 -751 1342 -1617 719 -866 1309 -1582 1312 -1590 7 -24 1744
-1019 1766 -1011 36 13 1014 766 1010 778 -3 7 21 19 64 32 37 11 1101 334
2363 718 l2295 698 1315 -5 1315 -5 1250 -804 c688 -442 1252 -807 1255 -811
3 -3 749 -606 1658 -1339 908 -733 1652 -1336 1652 -1340 0 -4 -6 -13 -12 -21
-11 -12 -10 -12 4 -1 15 11 175 -116 1312 -1041 712 -579 1289 -1054 1281
-1056 -7 -2 -15 -11 -18 -21 -3 -13 176 -263 578 -805 320 -432 595 -801 611
-819 16 -17 30 -41 32 -52 6 -36 1153 -2698 1167 -2709 12 -9 10 -20 -13 -66
-16 -30 -273 -670 -573 -1422 -340 -854 -550 -1368 -559 -1371 -27 -8 -2265
-2087 -2268 -2108 -2 -10 -13 -21 -25 -23 -12 -3 -634 -51 -1382 -107 -1298
-97 -1673 -119 -2595 -155 l-185 -7 -1063 947 -1062 947 17 30 c11 17 23 27
33 24 281 -82 3636 -1035 3645 -1035 7 0 343 173 746 384 l734 384 543 512
c441 417 542 518 542 538 0 14 11 37 24 51 13 15 386 507 830 1094 l806 1069
-284 841 c-157 463 -292 863 -301 888 l-16 46 -1001 659 c-551 362 -1006 659
-1012 660 -6 1 -654 284 -1439 629 -786 345 -1431 625 -1434 622 -3 -3 -189
-551 -415 -1219 -225 -667 -413 -1215 -418 -1218 -4 -3 7 -426 26 -940 18
-514 34 -950 34 -967 l0 -33 -1265 0 -1265 0 0 34 c0 19 4 36 10 38 5 2 97
190 205 418 l195 415 3 505 2 505 190 1327 c104 730 187 1330 184 1333 -7 6
-3788 -300 -3889 -315 -153 -24 -1195 -221 -1202 -228 -4 -4 -176 -454 -382
-1001 -206 -547 -379 -997 -384 -1000 -5 -3 -123 -459 -263 -1012 l-253 -1006
-585 -6 c-321 -4 -959 -7 -1418 -7 l-833 0 428 643 c331 495 427 647 422 662
-4 11 -3 35 1 55 36 167 115 871 220 1959 66 684 119 1245 117 1246 -4 5
-4234 2172 -4410 2261 -76 38 -138 74 -138 80 0 22 -4580 5908 -4616 5934 -30
21 -35 29 -31 55 27 176 532 2921 538 2925 4 3 98 583 209 1288 184 1175 200
1285 185 1296 -14 10 177 80 1125 412 628 219 1147 402 1153 406 7 4 6 12 -4
24 -13 16 -12 17 6 10 11 -5 31 -11 45 -14z m9079 -20062 c232 -56 414 -214
504 -440 34 -87 47 -164 47 -285 0 -121 -13 -198 -47 -285 -91 -228 -272 -384
-509 -441 -126 -30 -304 -24 -419 15 -245 83 -416 268 -480 521 -13 48 -18
107 -18 190 0 133 17 218 64 323 93 207 281 359 504 407 94 21 256 18 354 -5z
m2010 0 c232 -56 414 -214 504 -440 34 -87 47 -164 47 -285 0 -121 -13 -198
-47 -285 -91 -228 -272 -384 -509 -441 -126 -30 -304 -24 -419 15 -245 83
-416 268 -480 521 -13 48 -18 107 -18 190 0 133 17 218 64 323 93 207 281 359
504 407 94 21 256 18 354 -5z m-13079 -655 l0 -645 330 0 330 0 0 -65 0 -65
-405 0 -405 0 0 710 0 710 75 0 75 0 0 -645z m1340 -65 l0 -710 -75 0 -75 0 0
710 0 710 75 0 75 0 0 -710z m1650 645 l0 -65 -235 0 -235 0 0 -645 0 -645
-75 0 -75 0 0 645 0 645 -235 0 -235 0 0 65 0 65 545 0 545 0 0 -65z m1490 0
l0 -65 -235 0 -235 0 0 -645 0 -645 -75 0 -75 0 0 645 0 645 -235 0 -235 0 0
65 0 65 545 0 545 0 0 -65z m700 -580 l0 -645 330 0 330 0 0 -65 0 -65 -405 0
-405 0 0 710 0 710 75 0 75 0 0 -645z m2070 580 l0 -65 -365 0 -365 0 0 -245
0 -245 340 0 340 0 0 -65 0 -65 -340 0 -340 0 0 -270 0 -270 380 0 380 0 0
-65 0 -65 -455 0 -455 0 0 710 0 710 440 0 440 0 0 -65z m2400 0 l0 -65 -355
0 -355 0 0 -245 0 -245 330 0 330 0 0 -65 0 -65 -330 0 -330 0 0 -335 0 -335
-75 0 -75 0 0 710 0 710 430 0 430 0 0 -65z m5530 0 l0 -65 -235 0 -235 0 0
-645 0 -645 -75 0 -75 0 0 645 0 645 -235 0 -235 0 0 65 0 65 545 0 545 0 0
-65z m2115 41 c33 -9 103 -38 155 -64 278 -136 424 -440 366 -762 -39 -212
-176 -391 -371 -485 -155 -75 -171 -78 -522 -82 l-313 -5 0 712 0 712 313 -5
c255 -3 323 -7 372 -21z m2035 -41 l0 -65 -365 0 -365 0 0 -245 0 -245 340 0
340 0 0 -65 0 -65 -340 0 -340 0 0 -270 0 -270 380 0 380 0 0 -65 0 -65 -455
0 -455 0 0 710 0 710 440 0 440 0 0 -65z m840 -532 c122 -329 224 -599 225
-601 1 -1 105 264 230 590 125 326 231 597 235 601 4 4 41 7 83 5 l76 -3 -220
-565 c-121 -311 -245 -629 -275 -708 l-56 -143 -75 3 -75 3 -254 670 c-140
369 -261 687 -269 708 l-15 37 83 0 84 0 223 -597z"/>
<path d="M23735 36410 c-890 -312 -1046 -370 -1025 -378 19 -7 2178 -791 3188
-1158 86 -31 92 -32 81 -12 -28 52 -772 1286 -956 1585 -139 226 -210 333
-222 332 -9 0 -488 -166 -1066 -369z"/>
<path d="M24952 36714 c178 -300 1129 -1849 1147 -1867 7 -7 45 40 251 313
104 138 223 327 216 343 -2 7 -91 144 -198 305 l-193 294 -614 310 c-338 171
-611 307 -609 302z"/>
<path d="M22912 35283 c198 -401 484 -977 634 -1282 253 -511 275 -553 296
-549 35 7 2180 1290 2171 1299 -7 6 -3447 1259 -3458 1259 -2 0 159 -327 357
-727z"/>
<path d="M22368 34642 c-103 -653 -185 -1188 -184 -1190 2 -1 351 -1 778 0
l774 3 -585 1182 c-322 650 -588 1184 -591 1187 -3 3 -90 -529 -192 -1182z"/>
<path d="M26569 35326 c-137 -182 -363 -546 -340 -546 10 0 339 29 731 65 392
36 720 65 729 65 9 0 -217 122 -502 270 -285 149 -520 270 -521 270 -2 0 -46
-56 -97 -124z"/>
<path d="M27032 34780 c-403 -37 -735 -69 -736 -71 -2 -2 242 -141 542 -309
300 -168 660 -369 800 -447 l254 -143 -6 458 c-4 251 -9 485 -12 520 l-6 62
-51 -1 c-29 -1 -382 -32 -785 -69z"/>
<path d="M25043 34077 l-1021 -612 1271 -3 c698 -1 1272 0 1274 2 2 2 -101
279 -229 615 -205 539 -234 611 -252 610 -12 0 -481 -276 -1043 -612z"/>
<path d="M26190 34676 c0 -8 457 -1207 462 -1212 3 -2 278 57 612 133 333 75
603 140 599 144 -5 4 -379 215 -833 469 -454 254 -828 464 -832 467 -5 2 -8 2
-8 -1z"/>
<path d="M22150 33358 c0 -7 -110 -618 -244 -1358 -134 -740 -243 -1346 -242
-1347 1 -1 380 478 843 1065 463 587 945 1199 1072 1360 l231 292 -830 0
c-657 0 -830 -3 -830 -12z"/>
<path d="M23134 32383 c-385 -489 -858 -1090 -1052 -1336 l-353 -449 48 6 c26
3 140 13 253 21 306 23 2874 235 2876 238 5 5 -1060 2407 -1066 2407 -4 0
-322 -399 -706 -887z"/>
<path d="M23740 30680 c-1061 -80 -1713 -130 -1909 -147 l-74 -6 34 -17 c95
-48 3561 -1572 3565 -1567 3 2 -90 412 -205 909 -116 498 -211 908 -211 911 0
4 -8 6 -17 6 -10 -1 -542 -41 -1183 -89z"/>
<path d="M25041 30644 c5 -21 99 -424 208 -896 110 -471 206 -867 215 -880 9
-14 415 -253 1007 -593 545 -313 1008 -578 1028 -589 35 -18 36 -18 20 0 -9
11 -566 683 -1239 1494 -672 811 -1228 1481 -1235 1489 -11 12 -12 7 -4 -25z"/>
<path d="M21717 30448 c6 -7 1017 -1308 2247 -2891 1230 -1583 2236 -2872
2236 -2864 0 15 -760 3949 -785 4062 l-15 71 -1813 804 c-2065 915 -1885 836
-1870 818z"/>
<path d="M25493 28734 c3 -11 184 -944 403 -2074 218 -1130 400 -2058 403
-2062 4 -5 691 424 1526 953 836 528 1525 964 1533 968 8 5 -685 408 -1918
1117 -1063 610 -1936 1111 -1942 1113 -6 2 -8 -5 -5 -15z"/>
<path d="M37750 28725 c-8 -10 -10 -29 -6 -58 54 -339 1120 -6245 1129 -6254
9 -9 112 337 465 1566 l453 1579 -1002 1573 c-551 866 -1007 1582 -1014 1592
-11 15 -14 16 -25 2z"/>
<path d="M35230 28715 c0 -3 -113 -681 -250 -1507 -138 -826 -249 -1504 -248
-1508 2 -5 2217 2292 2781 2885 l129 135 -1206 0 c-663 0 -1206 -2 -1206 -5z"/>
<path d="M32851 28021 c-1240 -377 -2253 -689 -2253 -694 2 -12 3707 -3787
3709 -3779 7 23 803 5139 801 5148 -2 7 -890 -259 -2257 -675z"/>
<path d="M37921 28632 c7 -16 1892 -2973 1894 -2970 7 9 418 1489 414 1492 -3
3 -2031 1308 -2253 1450 -32 20 -56 33 -55 28z"/>
<path d="M36165 27080 l-1470 -1530 -169 -1078 -169 -1077 269 -722 c148 -398
271 -719 275 -715 3 4 615 1488 1359 3297 745 1810 1360 3305 1367 3323 7 17
12 32 11 32 -2 0 -664 -689 -1473 -1530z"/>
<path d="M36337 25254 c-741 -1802 -1347 -3277 -1345 -3278 2 -2 2501 201
3763 306 36 3 40 6 43 33 4 31 -1099 6215 -1108 6215 -3 0 -612 -1474 -1353
-3276z"/>
<path d="M30030 26921 c-266 -203 -486 -373 -487 -378 -2 -6 3420 -1774 3470
-1792 6 -2 -551 568 -1237 1268 -686 699 -1251 1271 -1255 1271 -4 0 -225
-166 -491 -369z"/>
<path d="M40071 26303 c-190 -675 -212 -760 -200 -778 22 -34 1503 -1834 1507
-1831 3 4 -1076 3334 -1087 3354 -4 7 -103 -328 -220 -745z"/>
<path d="M40421 26888 c479 -1491 1097 -3373 1110 -3381 13 -8 226 91 1015
473 550 265 1002 485 1006 489 5 5 -3083 2505 -3161 2559 -15 11 -10 -15 30
-140z"/>
<path d="M27955 25547 c-817 -517 -1484 -941 -1483 -943 3 -2 5976 61 6376 68
l153 3 -1763 906 c-970 499 -1771 906 -1780 906 -9 0 -685 -423 -1503 -940z"/>
<path d="M39398 23927 c-240 -837 -436 -1522 -435 -1523 1 -1 547 229 1212
512 666 282 1227 520 1248 529 l39 16 -18 27 c-17 26 -1559 1908 -1593 1944
-15 16 -48 -95 -453 -1505z"/>
<path d="M31912 24589 c-332 -4 -605 -9 -608 -12 -6 -5 879 -2767 886 -2767 3
0 205 622 449 1383 244 760 446 1388 448 1395 5 14 -140 14 -1175 1z"/>
<path d="M32696 23140 c-339 -1058 -466 -1466 -460 -1480 8 -15 158 118 979
867 534 486 987 900 1008 919 l38 35 -225 232 c-124 128 -371 380 -548 560
l-323 329 -469 -1462z"/>
<path d="M28705 24554 c-1089 -12 -2059 -24 -2156 -26 l-175 -3 2190 -1123
c1205 -617 2219 -1138 2254 -1157 80 -42 1303 -585 1320 -585 6 0 12 6 12 13
0 7 -209 663 -464 1457 l-463 1445 -269 1 c-148 1 -1160 -9 -2249 -22z"/>
<path d="M42489 23277 c-679 -659 -1139 -1113 -1130 -1115 20 -3 4672 276
4677 280 4 5 -2377 1942 -2390 1945 -6 2 -526 -498 -1157 -1110z"/>
<path d="M42515 23886 l-980 -474 -1283 -543 c-705 -298 -1281 -545 -1280
-549 2 -3 279 -268 617 -589 l614 -582 46 44 c25 24 246 230 491 457 245 227
446 416 448 421 2 4 -4 9 -13 11 -10 2 370 377 1055 1043 589 572 1117 1084
1173 1137 56 53 100 97 97 97 -3 1 -446 -212 -985 -473z"/>
<path d="M33258 22470 c-544 -496 -988 -905 -988 -911 0 -6 143 -405 317 -886
210 -578 319 -868 324 -856 4 10 293 779 644 1708 689 1829 696 1845 692 1845
-1 0 -446 -405 -989 -900z"/>
<path d="M34012 22533 c-161 -427 -291 -778 -288 -780 3 -3 1069 192 1087 200
6 2 -491 1341 -501 1351 -3 3 -137 -344 -298 -771z"/>
<path d="M43673 22226 c-1289 -77 -2343 -143 -2343 -146 1 -4 2728 -1204 2801
-1232 14 -6 232 160 971 739 524 410 962 754 973 764 19 19 19 19 -20 18 -22
-1 -1094 -65 -2382 -143z"/>
<path d="M45168 21548 c-527 -413 -955 -754 -952 -757 5 -6 3005 -82 3060 -78
31 2 26 10 -555 794 -322 436 -588 792 -591 792 -3 0 -436 -338 -962 -751z"/>
<path d="M38893 22258 c5 -33 3 -38 -14 -38 -10 0 -19 -3 -19 -7 -1 -5 -81
-574 -178 -1265 -98 -691 -175 -1255 -171 -1252 18 11 1604 1417 1607 1424 2
6 -1007 971 -1197 1144 l-34 31 6 -37z"/>
<path d="M30826 22108 c-4 -24 -51 -509 -106 -1078 -55 -569 -102 -1055 -106
-1078 -5 -43 14 -23 759 775 421 450 761 820 756 821 -5 2 -9 11 -9 20 0 13
-162 88 -628 294 -345 153 -635 280 -644 283 -13 5 -18 -2 -22 -37z"/>
<path d="M40715 21530 c-326 -304 -476 -438 -490 -437 -14 2 -296 -242 -892
-768 -682 -603 -866 -771 -849 -774 33 -5 1910 51 1917 58 3 3 183 530 399
1171 216 641 395 1171 397 1178 3 6 1 12 -3 11 -5 0 -220 -198 -479 -439z"/>
<path d="M31397 20648 l-806 -863 67 -2 c170 -6 2176 -32 2180 -29 3 4 -624
1746 -632 1753 -2 2 -365 -385 -809 -859z"/>
<path d="M45085 20245 c391 -258 794 -523 897 -591 l187 -122 541 551 c297
304 537 553 533 554 -4 1 -568 16 -1253 32 -685 17 -1328 33 -1430 37 l-185 6
710 -467z"/>
<path d="M46800 20074 c-300 -306 -546 -559 -548 -564 -2 -5 1662 -1100 2186
-1438 22 -14 22 -14 13 9 -5 13 -251 587 -546 1274 -295 688 -539 1256 -542
1263 -3 6 -8 12 -12 12 -3 0 -251 -250 -551 -556z"/>
<path d="M30596 19693 c-11 -42 -99 -694 -94 -699 6 -5 2229 678 2224 683 -1
2 -2014 33 -2109 33 -9 0 -18 -8 -21 -17z"/>
<path d="M31662 19271 c-634 -197 -1154 -360 -1156 -362 -3 -4 469 -1197 477
-1205 2 -2 377 386 833 863 456 477 871 911 923 965 51 54 90 98 85 97 -5 0
-528 -161 -1162 -358z"/>
<path d="M39333 19501 c-463 -15 -844 -29 -847 -32 -4 -3 -5 -191 -4 -416 l3
-411 825 399 c454 219 866 418 915 443 l90 45 -70 -1 c-38 0 -449 -13 -912
-27z"/>
<path d="M32030 18688 c-415 -434 -796 -833 -847 -887 l-91 -97 626 4 c345 2
628 5 629 6 5 5 443 1751 441 1757 -2 4 -343 -348 -758 -783z"/>
<path d="M39442 19026 c-624 -302 -928 -454 -919 -460 7 -4 440 -194 962 -421
l950 -412 3 41 c5 57 -47 1578 -56 1647 l-7 55 -933 -450z"/>
<path d="M46272 19390 c3 -8 133 -392 288 -852 264 -781 284 -837 304 -833 12
3 374 61 806 130 432 69 788 126 791 128 5 1 -1816 1198 -2164 1422 -23 14
-29 16 -25 5z"/>
<path d="M30082 18263 l-372 -558 592 -3 c325 -1 593 0 595 2 4 4 -426 1097
-437 1109 -3 4 -174 -244 -378 -550z"/>
<path d="M38272 18093 c-100 -212 -180 -388 -179 -390 2 -2 259 -2 570 -1
l566 3 -381 388 c-209 213 -383 387 -387 387 -4 0 -89 -174 -189 -387z"/>
<path d="M38965 18075 l368 -375 496 0 c422 1 492 3 466 14 -88 39 -1654 719
-1674 727 -13 5 142 -159 344 -366z"/>
<path d="M47616 17754 c-424 -69 -771 -125 -771 -127 -14 -18 -1385 -1834
-1428 -1891 -33 -44 -54 -75 -46 -71 14 8 2971 2161 3018 2197 13 10 17 18 10
17 -8 -1 -360 -57 -783 -125z"/>
<path d="M46827 16635 c-885 -645 -1608 -1177 -1608 -1182 0 -4 485 -65 1078
-134 593 -70 1084 -128 1091 -130 9 -3 169 386 520 1266 279 699 515 1289 525
1313 9 23 13 42 9 41 -4 0 -731 -529 -1615 -1174z"/>
<path d="M45170 14254 c0 -898 3 -1124 13 -1117 6 4 493 453 1082 998 765 709
1063 991 1050 993 -11 1 -483 56 -1050 122 -566 65 -1045 121 -1062 124 l-33
5 0 -1125z"/>
<path d="M44608 14840 c-269 -254 -488 -463 -488 -466 0 -2 9 1 20 8 12 8 23
9 28 3 5 -6 216 -295 468 -643 l459 -634 3 552 c1 303 1 797 0 1096 l-3 545
-487 -461z"/>
<path d="M39050 14536 c132 -123 1942 -1726 1949 -1726 20 0 1441 764 1434
771 -8 7 -3370 969 -3388 969 -5 0 -3 -6 5 -14z"/>
<path d="M43987 14253 c-332 -311 -1466 -1387 -1464 -1390 5 -4 2509 186 2514
191 5 5 -925 1289 -937 1294 -4 2 -55 -41 -113 -95z"/>
<path d="M43200 13881 l-625 -329 -82 -343 c-45 -189 -81 -344 -80 -345 2 -1
1345 1270 1395 1320 15 14 24 26 22 25 -3 0 -286 -148 -630 -328z"/>
<path d="M41809 13156 c-438 -234 -650 -352 -635 -355 24 -4 1086 38 1131 45
l30 4 74 318 c41 174 76 323 79 330 2 6 -2 12 -9 11 -8 -1 -309 -159 -670
-353z"/>
<path d="M33588 16685 c-99 -20 -201 -77 -278 -155 -116 -116 -172 -263 -172
-445 0 -182 56 -329 172 -445 118 -119 276 -178 442 -166 241 19 416 153 504
386 26 70 28 85 28 225 0 140 -2 155 -28 225 -89 237 -270 372 -515 385 -53 3
-112 -1 -153 -10z"/>
<path d="M35598 16685 c-99 -20 -201 -77 -278 -155 -116 -116 -172 -263 -172
-445 0 -182 56 -329 172 -445 118 -119 276 -178 442 -166 241 19 416 153 504
386 26 70 28 85 28 225 0 140 -2 155 -28 225 -89 237 -270 372 -515 385 -53 3
-112 -1 -153 -10z"/>
<path d="M39590 16090 l0 -580 159 0 c268 0 392 29 524 123 118 85 189 204
215 363 14 85 14 104 0 188 -27 164 -100 285 -226 370 -129 88 -249 115 -509
116 l-163 0 0 -580z"/>
</g>
</svg>
